<?xml version="1.0" standalone="no"?>
<!DOCTYPE svg PUBLIC "-//W3C//DTD SVG 20010904//EN"
 "http://www.w3.org/TR/2001/REC-SVG-20010904/DTD/svg10.dtd">
<svg version="1.0" xmlns="http://www.w3.org/2000/svg"
 width="1112.000000pt" height="239.000000pt" viewBox="0 0 1112.000000 239.000000"
 preserveAspectRatio="xMidYMid meet">

<g transform="translate(0.000000,239.000000) scale(0.100000,-0.100000)"
fill="#000000" stroke="none">
<path d="M3819 1830 c-156 -15 -287 -78 -405 -195 -131 -131 -187 -269 -186
-465 0 -119 18 -203 63 -295 82 -168 256 -306 440 -350 73 -17 251 -20 319 -5
112 25 231 89 313 168 l47 46 0 278 0 278 -250 0 -250 0 0 -115 0 -115 135 0
135 0 0 -114 0 -114 -49 -31 c-84 -54 -154 -74 -246 -68 -113 6 -181 35 -261
109 -47 44 -74 81 -102 136 -37 75 -37 77 -37 196 0 117 1 123 33 189 45 91
122 169 209 209 134 63 303 47 417 -40 27 -20 55 -41 62 -47 10 -7 34 10 95
70 l80 80 -51 47 c-126 113 -310 166 -511 148z"/>
<path d="M4685 1798 c-3 -7 -4 -294 -3 -638 l3 -625 117 -3 118 -3 2 203 3
203 130 3 130 3 102 -206 103 -205 130 0 c81 0 130 4 130 10 0 6 -47 105 -105
220 -58 115 -105 212 -105 214 0 2 20 16 44 30 56 32 137 121 164 180 60 127
55 285 -13 404 -62 106 -189 192 -315 212 -99 15 -629 13 -635 -2z m641 -240
c137 -74 150 -264 25 -353 l-43 -30 -194 -3 -194 -3 0 199 c0 109 3 202 8 206
4 4 88 6 187 4 145 -3 186 -7 211 -20z"/>
<path d="M5935 1798 c-3 -7 -4 -294 -3 -638 l3 -625 468 -3 467 -2 0 115 0
115 -345 0 -345 0 0 150 0 150 285 0 285 0 0 115 0 115 -285 0 -285 0 0 145 0
145 345 0 345 0 0 115 0 115 -465 0 c-363 0 -467 -3 -470 -12z"/>
<path d="M7105 1798 c-3 -7 -4 -294 -3 -638 l3 -625 468 -3 467 -2 0 115 0
115 -345 0 -345 0 0 150 0 150 285 0 285 0 0 115 0 115 -285 0 -285 0 0 145 0
145 345 0 345 0 0 115 0 115 -465 0 c-363 0 -467 -3 -470 -12z"/>
<path d="M8275 1798 c-3 -7 -4 -294 -3 -638 l3 -625 120 0 120 0 -4 369 c-3
274 -1 367 7 362 7 -4 161 -165 343 -359 183 -194 339 -358 347 -364 9 -7 26
-13 39 -13 l23 0 0 640 0 641 -117 -3 -118 -3 -5 -366 -5 -366 -298 316 c-409
434 -395 421 -423 421 -14 0 -27 -6 -29 -12z"/>
<path d="M9550 1170 l0 -640 120 0 120 0 0 640 0 640 -120 0 -120 0 0 -640z"/>
<path d="M10003 1797 c3 -7 96 -151 207 -320 l201 -307 -201 -307 c-111 -168
-204 -312 -207 -320 -4 -10 23 -13 136 -13 l142 0 138 210 137 210 138 -210
138 -210 144 0 c135 0 144 1 135 18 -6 9 -194 296 -419 637 l-408 620 -143 3
c-116 2 -142 0 -138 -11z"/>
</g>
</svg>
